<mxfile host="app.diagrams.net" modified="2022-07-25T11:13:29.400Z" agent="5.0 (Macintosh; Intel Mac OS X 10_15_7) AppleWebKit/537.36 (KHTML, like Gecko) Chrome/103.0.0.0 Safari/537.36" etag="AlcuFXT6Ayz3UlkWnVCC" version="20.1.4" type="github">
  <diagram id="qvYg9TJNYh_p_2qdCzhL" name="Page-1">
    <mxGraphModel dx="1215" dy="971" grid="1" gridSize="10" guides="1" tooltips="1" connect="1" arrows="1" fold="1" page="0" pageScale="1" pageWidth="1654" pageHeight="1169" math="0" shadow="0">
      <root>
        <mxCell id="0" />
        <mxCell id="1" parent="0" />
        <mxCell id="hk6j71dAJvdS6BKl5xrb-3" value="Infrastructure&amp;nbsp;&lt;br style=&quot;font-size: 13px;&quot;&gt;security" style="rounded=1;whiteSpace=wrap;html=1;fontColor=#000000;strokeColor=#000000;fillColor=none;gradientColor=default;fontSize=13;" vertex="1" parent="1">
          <mxGeometry x="110" y="-210" width="120" height="60" as="geometry" />
        </mxCell>
        <mxCell id="hk6j71dAJvdS6BKl5xrb-4" value="&lt;font color=&quot;#000000&quot;&gt;VPC&lt;/font&gt;" style="points=[[0,0],[0.25,0],[0.5,0],[0.75,0],[1,0],[1,0.25],[1,0.5],[1,0.75],[1,1],[0.75,1],[0.5,1],[0.25,1],[0,1],[0,0.75],[0,0.5],[0,0.25]];outlineConnect=0;gradientColor=none;html=1;whiteSpace=wrap;fontSize=12;fontStyle=0;container=1;pointerEvents=0;collapsible=0;recursiveResize=0;shape=mxgraph.aws4.group;grIcon=mxgraph.aws4.group_vpc;strokeColor=#248814;fillColor=none;verticalAlign=top;align=left;spacingLeft=30;fontColor=#AAB7B8;dashed=0;" vertex="1" parent="1">
          <mxGeometry x="-180" y="-60" width="260" height="160" as="geometry" />
        </mxCell>
        <mxCell id="hk6j71dAJvdS6BKl5xrb-15" value="" style="rounded=0;whiteSpace=wrap;html=1;fontSize=10;fontColor=#000000;strokeColor=#FF3333;fillColor=none;gradientColor=none;" vertex="1" parent="hk6j71dAJvdS6BKl5xrb-4">
          <mxGeometry x="102" y="43.5" width="130" height="80" as="geometry" />
        </mxCell>
        <mxCell id="hk6j71dAJvdS6BKl5xrb-6" value="" style="rounded=0;whiteSpace=wrap;html=1;fontSize=13;fontColor=#000000;strokeColor=#000000;fillColor=none;gradientColor=default;" vertex="1" parent="hk6j71dAJvdS6BKl5xrb-4">
          <mxGeometry x="39" y="25.5" width="201" height="111" as="geometry" />
        </mxCell>
        <mxCell id="hk6j71dAJvdS6BKl5xrb-5" value="" style="sketch=0;points=[[0,0,0],[0.25,0,0],[0.5,0,0],[0.75,0,0],[1,0,0],[0,1,0],[0.25,1,0],[0.5,1,0],[0.75,1,0],[1,1,0],[0,0.25,0],[0,0.5,0],[0,0.75,0],[1,0.25,0],[1,0.5,0],[1,0.75,0]];outlineConnect=0;fontColor=#232F3E;gradientColor=#F54749;gradientDirection=north;fillColor=#C7131F;strokeColor=#ffffff;dashed=0;verticalLabelPosition=bottom;verticalAlign=top;align=center;html=1;fontSize=12;fontStyle=0;aspect=fixed;shape=mxgraph.aws4.resourceIcon;resIcon=mxgraph.aws4.network_firewall;" vertex="1" parent="hk6j71dAJvdS6BKl5xrb-4">
          <mxGeometry x="20" y="58.5" width="40" height="40" as="geometry" />
        </mxCell>
        <mxCell id="hk6j71dAJvdS6BKl5xrb-14" value="" style="group" vertex="1" connectable="0" parent="hk6j71dAJvdS6BKl5xrb-4">
          <mxGeometry x="163" y="53.5" width="40" height="40" as="geometry" />
        </mxCell>
        <mxCell id="hk6j71dAJvdS6BKl5xrb-8" value="" style="sketch=0;outlineConnect=0;fontColor=#232F3E;gradientColor=none;fillColor=#D45B07;strokeColor=none;dashed=0;verticalLabelPosition=bottom;verticalAlign=top;align=center;html=1;fontSize=12;fontStyle=0;aspect=fixed;pointerEvents=1;shape=mxgraph.aws4.ec2_m1_mac_instance;" vertex="1" parent="hk6j71dAJvdS6BKl5xrb-14">
          <mxGeometry width="40" height="40" as="geometry" />
        </mxCell>
        <mxCell id="hk6j71dAJvdS6BKl5xrb-13" value="" style="rounded=0;whiteSpace=wrap;html=1;fontSize=12;fontColor=#000000;strokeColor=none;fillColor=#FFFFFF;gradientColor=none;" vertex="1" parent="hk6j71dAJvdS6BKl5xrb-14">
          <mxGeometry x="9" y="9" width="22" height="22" as="geometry" />
        </mxCell>
        <mxCell id="hk6j71dAJvdS6BKl5xrb-9" value="&lt;font style=&quot;font-size: 10px;&quot;&gt;EC2&lt;/font&gt;" style="text;html=1;align=center;verticalAlign=middle;resizable=0;points=[];autosize=1;strokeColor=none;fillColor=none;fontSize=12;fontColor=#000000;" vertex="1" parent="hk6j71dAJvdS6BKl5xrb-14">
          <mxGeometry y="5" width="40" height="30" as="geometry" />
        </mxCell>
        <mxCell id="hk6j71dAJvdS6BKl5xrb-16" value="&lt;font style=&quot;font-size: 12px;&quot;&gt;private network&lt;/font&gt;" style="text;html=1;align=center;verticalAlign=middle;resizable=0;points=[];autosize=1;strokeColor=none;fillColor=none;fontSize=10;fontColor=#000000;" vertex="1" parent="hk6j71dAJvdS6BKl5xrb-4">
          <mxGeometry x="105" y="23.5" width="100" height="30" as="geometry" />
        </mxCell>
        <mxCell id="hk6j71dAJvdS6BKl5xrb-18" value="" style="group" vertex="1" connectable="0" parent="hk6j71dAJvdS6BKl5xrb-4">
          <mxGeometry x="112" y="53.5" width="40" height="40" as="geometry" />
        </mxCell>
        <mxCell id="hk6j71dAJvdS6BKl5xrb-19" value="" style="sketch=0;outlineConnect=0;fontColor=#232F3E;gradientColor=none;fillColor=#D45B07;strokeColor=none;dashed=0;verticalLabelPosition=bottom;verticalAlign=top;align=center;html=1;fontSize=12;fontStyle=0;aspect=fixed;pointerEvents=1;shape=mxgraph.aws4.ec2_m1_mac_instance;" vertex="1" parent="hk6j71dAJvdS6BKl5xrb-18">
          <mxGeometry width="40" height="40" as="geometry" />
        </mxCell>
        <mxCell id="hk6j71dAJvdS6BKl5xrb-20" value="" style="rounded=0;whiteSpace=wrap;html=1;fontSize=12;fontColor=#000000;strokeColor=none;fillColor=#FFFFFF;gradientColor=none;" vertex="1" parent="hk6j71dAJvdS6BKl5xrb-18">
          <mxGeometry x="9" y="9" width="22" height="22" as="geometry" />
        </mxCell>
        <mxCell id="hk6j71dAJvdS6BKl5xrb-21" value="&lt;font style=&quot;font-size: 10px;&quot;&gt;EC2&lt;/font&gt;" style="text;html=1;align=center;verticalAlign=middle;resizable=0;points=[];autosize=1;strokeColor=none;fillColor=none;fontSize=12;fontColor=#000000;" vertex="1" parent="hk6j71dAJvdS6BKl5xrb-18">
          <mxGeometry y="5" width="40" height="30" as="geometry" />
        </mxCell>
        <mxCell id="hk6j71dAJvdS6BKl5xrb-22" value="app" style="text;html=1;align=center;verticalAlign=middle;resizable=0;points=[];autosize=1;strokeColor=none;fillColor=none;fontSize=12;fontColor=#000000;" vertex="1" parent="hk6j71dAJvdS6BKl5xrb-4">
          <mxGeometry x="162" y="84.5" width="40" height="30" as="geometry" />
        </mxCell>
        <mxCell id="hk6j71dAJvdS6BKl5xrb-23" value="app" style="text;html=1;align=center;verticalAlign=middle;resizable=0;points=[];autosize=1;strokeColor=none;fillColor=none;fontSize=12;fontColor=#000000;" vertex="1" parent="hk6j71dAJvdS6BKl5xrb-4">
          <mxGeometry x="112" y="84.5" width="40" height="30" as="geometry" />
        </mxCell>
        <mxCell id="hk6j71dAJvdS6BKl5xrb-7" value="" style="outlineConnect=0;dashed=0;verticalLabelPosition=bottom;verticalAlign=top;align=center;html=1;shape=mxgraph.aws3.instance;fillColor=#F58534;gradientColor=none;fontSize=13;fontColor=#000000;strokeColor=#000000;" vertex="1" parent="1">
          <mxGeometry x="340" y="-200" width="50" height="50" as="geometry" />
        </mxCell>
      </root>
    </mxGraphModel>
  </diagram>
</mxfile>
